<svg width="136" height="133" viewBox="0 0 136 133" fill="none" xmlns="http://www.w3.org/2000/svg">
<ellipse cx="68" cy="66" rx="68" ry="66" fill="white"/>
<path d="M24.517 109V91.5455H31.5057C32.7898 91.5455 33.8608 91.7358 34.7188 92.1165C35.5767 92.4972 36.2216 93.0256 36.6534 93.7017C37.0852 94.3722 37.3011 95.1449 37.3011 96.0199C37.3011 96.7017 37.1648 97.3011 36.892 97.8182C36.6193 98.3295 36.2443 98.75 35.767 99.0795C35.2955 99.4034 34.7557 99.6335 34.1477 99.7699V99.9403C34.8125 99.9687 35.4347 100.156 36.0142 100.503C36.5994 100.849 37.0739 101.335 37.4375 101.96C37.8011 102.58 37.983 103.318 37.983 104.176C37.983 105.102 37.7528 105.929 37.2926 106.656C36.8381 107.378 36.1648 107.949 35.2727 108.369C34.3807 108.79 33.2813 109 31.9744 109H24.517ZM28.2074 105.983H31.2159C32.2443 105.983 32.9943 105.787 33.4659 105.395C33.9375 104.997 34.1733 104.469 34.1733 103.81C34.1733 103.327 34.0568 102.901 33.8239 102.531C33.5909 102.162 33.2585 101.872 32.8267 101.662C32.4006 101.452 31.892 101.347 31.3011 101.347H28.2074V105.983ZM28.2074 98.8494H30.9432C31.4489 98.8494 31.8977 98.7614 32.2898 98.5852C32.6875 98.4034 33 98.1477 33.2273 97.8182C33.4602 97.4886 33.5767 97.0938 33.5767 96.6335C33.5767 96.0028 33.3523 95.4943 32.9034 95.108C32.4602 94.7216 31.8295 94.5284 31.0114 94.5284H28.2074V98.8494ZM44.049 109.247C43.2138 109.247 42.4695 109.102 41.8161 108.812C41.1626 108.517 40.6456 108.082 40.2649 107.509C39.8899 106.929 39.7024 106.207 39.7024 105.344C39.7024 104.616 39.8359 104.006 40.103 103.511C40.37 103.017 40.7337 102.619 41.1939 102.318C41.6541 102.017 42.1768 101.79 42.7621 101.636C43.353 101.483 43.9723 101.375 44.62 101.312C45.3814 101.233 45.995 101.159 46.4609 101.091C46.9268 101.017 47.2649 100.909 47.4751 100.767C47.6854 100.625 47.7905 100.415 47.7905 100.136V100.085C47.7905 99.5455 47.62 99.1278 47.2791 98.8324C46.9439 98.5369 46.4666 98.3892 45.8473 98.3892C45.1939 98.3892 44.674 98.5341 44.2876 98.8239C43.9013 99.108 43.6456 99.4659 43.5206 99.8977L40.1626 99.625C40.3331 98.8295 40.6683 98.142 41.1683 97.5625C41.6683 96.9773 42.3132 96.5284 43.103 96.2159C43.8984 95.8977 44.8189 95.7386 45.8643 95.7386C46.5916 95.7386 47.2876 95.8239 47.9524 95.9943C48.6229 96.1648 49.2166 96.429 49.7337 96.7869C50.2564 97.1449 50.6683 97.6051 50.9695 98.1676C51.2706 98.7244 51.4212 99.392 51.4212 100.17V109H47.978V107.185H47.8757C47.6655 107.594 47.3842 107.955 47.032 108.267C46.6797 108.574 46.2564 108.815 45.7621 108.991C45.2678 109.162 44.6967 109.247 44.049 109.247ZM45.0888 106.741C45.6229 106.741 46.0945 106.636 46.5036 106.426C46.9126 106.21 47.2337 105.92 47.4666 105.557C47.6996 105.193 47.8161 104.781 47.8161 104.321V102.932C47.7024 103.006 47.5462 103.074 47.3473 103.136C47.1541 103.193 46.9354 103.247 46.6911 103.298C46.4467 103.344 46.2024 103.386 45.9581 103.426C45.7138 103.46 45.4922 103.491 45.2933 103.52C44.8672 103.582 44.495 103.682 44.1768 103.818C43.8587 103.955 43.6115 104.139 43.4354 104.372C43.2592 104.599 43.1712 104.884 43.1712 105.224C43.1712 105.719 43.3501 106.097 43.7081 106.358C44.0717 106.614 44.532 106.741 45.0888 106.741ZM57.5277 105.233L57.5362 100.878H58.0646L62.2578 95.9091H66.4254L60.7919 102.489H59.9311L57.5277 105.233ZM54.2379 109V91.5455H57.8686V109H54.2379ZM62.4197 109L58.5675 103.298L60.9879 100.733L66.6726 109H62.4197ZM73.6335 109.256C72.2869 109.256 71.1278 108.983 70.1562 108.438C69.1903 107.886 68.446 107.108 67.9233 106.102C67.4006 105.091 67.1392 103.895 67.1392 102.514C67.1392 101.168 67.4006 99.9858 67.9233 98.9688C68.446 97.9517 69.1818 97.1591 70.1307 96.5909C71.0852 96.0227 72.2045 95.7386 73.4886 95.7386C74.3523 95.7386 75.1563 95.8778 75.9006 96.1562C76.6506 96.429 77.304 96.8409 77.8608 97.392C78.4233 97.9432 78.8608 98.6364 79.1733 99.4716C79.4858 100.301 79.642 101.273 79.642 102.386V103.384H68.5881V101.134H76.2244C76.2244 100.611 76.1108 100.148 75.8835 99.7443C75.6563 99.3409 75.3409 99.0256 74.9375 98.7983C74.5398 98.5653 74.0767 98.4489 73.5483 98.4489C72.9972 98.4489 72.5085 98.5767 72.0824 98.8324C71.6619 99.0824 71.3324 99.4205 71.0938 99.8466C70.8551 100.267 70.733 100.736 70.7273 101.253V103.392C70.7273 104.04 70.8466 104.599 71.0852 105.071C71.3295 105.543 71.6733 105.906 72.1165 106.162C72.5597 106.418 73.0852 106.545 73.6932 106.545C74.0966 106.545 74.4659 106.489 74.8011 106.375C75.1364 106.261 75.4233 106.091 75.6619 105.864C75.9006 105.636 76.0824 105.358 76.2074 105.028L79.5653 105.25C79.3949 106.057 79.0455 106.761 78.517 107.364C77.9943 107.96 77.3182 108.426 76.4886 108.761C75.6648 109.091 74.7131 109.256 73.6335 109.256ZM82.0114 109V95.9091H85.5312V98.1932H85.6676C85.9063 97.3807 86.3068 96.767 86.8693 96.3523C87.4318 95.9318 88.0795 95.7216 88.8125 95.7216C88.9943 95.7216 89.1903 95.733 89.4006 95.7557C89.6108 95.7784 89.7955 95.8097 89.9545 95.8494V99.071C89.7841 99.0199 89.5483 98.9744 89.2472 98.9347C88.946 98.8949 88.6705 98.875 88.4205 98.875C87.8864 98.875 87.4091 98.9915 86.9886 99.2244C86.5739 99.4517 86.2443 99.7699 86 100.179C85.7614 100.588 85.642 101.06 85.642 101.594V109H82.0114ZM94.4716 113.909C94.0114 113.909 93.5795 113.872 93.1761 113.798C92.7784 113.73 92.4489 113.642 92.1875 113.534L93.0057 110.824C93.4318 110.955 93.8153 111.026 94.1562 111.037C94.5028 111.048 94.8011 110.969 95.0511 110.798C95.3068 110.628 95.5142 110.338 95.6733 109.929L95.8864 109.375L91.1903 95.9091H95.0085L97.7188 105.523H97.8551L100.591 95.9091H104.435L99.3466 110.415C99.1023 111.119 98.7699 111.733 98.3494 112.256C97.9347 112.784 97.4091 113.19 96.7727 113.474C96.1364 113.764 95.3693 113.909 94.4716 113.909Z" fill="black"/>
<mask id="mask0_2_2" style="mask-type:alpha" maskUnits="userSpaceOnUse" x="22" y="5" width="96" height="94">
<rect x="22.7933" y="5.89941" width="94.9721" height="92.1788" fill="#D9D9D9"/>
</mask>
<g mask="url(#mask0_2_2)">
<path d="M102.332 71.0007C103.454 71.5768 104.443 71.4488 105.3 70.6166C106.158 69.7844 106.29 68.8242 105.696 67.736L99.9581 57.3659L95.803 67.736L102.332 71.0007ZM82.5465 67.3519H87.2951L96.7923 44.4993C96.9902 43.9872 96.9407 43.5551 96.6439 43.203C96.3471 42.8509 96.0009 42.5789 95.6052 42.3869L87.6908 39.3142C87.0973 39.1222 86.5202 39.1862 85.9596 39.5063C85.399 39.8263 85.0527 40.2744 84.9208 40.8505L82.5465 67.3519ZM53.2635 67.3519H58.0121L55.6378 40.8505C55.5059 40.1464 55.1596 39.6663 54.599 39.4102C54.0384 39.1542 53.4613 39.1222 52.8677 39.3142L44.9534 42.3869C44.4258 42.5789 44.0466 42.8509 43.8157 43.203C43.5849 43.5551 43.5684 43.9872 43.7663 44.4993L53.2635 67.3519ZM38.2262 71.0007L44.7555 67.736L40.6005 57.3659L34.8626 67.736C34.269 68.8242 34.401 69.7844 35.2583 70.6166C36.1157 71.4488 37.105 71.5768 38.2262 71.0007ZM65.9264 67.3519H74.6322L77.6001 34.8973C77.732 34.3212 77.5836 33.8251 77.1549 33.409C76.7262 32.9929 76.215 32.7849 75.6215 32.7849H64.9371C64.4095 32.7849 63.9313 32.9929 63.5026 33.409C63.0739 33.8251 62.8926 34.3212 62.9585 34.8973L65.9264 67.3519ZM36.4455 78.8743C33.6755 78.8743 31.3671 77.8661 29.5204 75.8497C27.6738 73.8333 26.7504 71.4488 26.7504 68.6962C26.7504 67.9281 26.8658 67.1759 27.0967 66.4397C27.3275 65.7036 27.6078 64.9835 27.9376 64.2793L36.6434 48.148C35.72 45.5875 35.753 43.059 36.7423 40.5625C37.7316 38.066 39.4793 36.3056 41.9855 35.2814L49.8999 32.2088C50.8232 31.8887 51.7465 31.6647 52.6699 31.5366C53.5932 31.4086 54.5166 31.4406 55.4399 31.6327C56.3632 29.7763 57.6493 28.224 59.2981 26.9757C60.947 25.7275 62.8266 25.1033 64.9371 25.1033H75.6215C77.732 25.1033 79.6116 25.7275 81.2604 26.9757C82.9093 28.224 84.1953 29.7763 85.1187 31.6327C86.042 31.5046 86.9654 31.4886 87.8887 31.5847C88.812 31.6807 89.7354 31.8887 90.6587 32.2088L98.5731 35.2814C101.211 36.3056 103.058 38.066 104.113 40.5625C105.168 43.059 105.102 45.5235 103.915 47.956L112.621 64.0873C113.017 64.7914 113.314 65.5276 113.511 66.2957C113.709 67.0639 113.808 67.864 113.808 68.6962C113.808 71.5768 112.802 73.9933 110.791 75.9457C108.779 77.8981 106.29 78.8743 103.322 78.8743C102.596 78.8743 101.871 78.7943 101.145 78.6342C100.42 78.4742 99.6942 78.2341 98.9688 77.9141L92.8352 75.0335H47.5256L41.9855 77.9141C41.1281 78.3622 40.2213 78.6342 39.265 78.7303C38.3087 78.8263 37.3688 78.8743 36.4455 78.8743Z" fill="#1C1B1F"/>
</g>
</svg>
